<svg xmlns="http://www.w3.org/2000/svg" xml:space="preserve" style="fill-rule:evenodd;clip-rule:evenodd;stroke-linecap:round;stroke-linejoin:round" viewBox="0 0 136 89"><path d="M8.288 15.038c2.036-2.036 5.388-2.036 7.424 0M5.106 11.856c3.807-3.808 9.98-3.808 13.788 0M1.924 8.674c5.565-5.565 14.587-5.565 20.152 0M12.53 18.22l-.53.53-.53-.53a.753.753 0 0 1 1.06 0Z" style="fill:none;fill-rule:nonzero;stroke:#000;stroke-width:1.5px" transform="matrix(0 -3.68618 3.68618 0 0 88.468)"/><path d="M8.288 15.038c2.036-2.036 5.388-2.036 7.424 0M5.106 11.856c3.807-3.808 9.98-3.808 13.788 0M1.924 8.674c5.565-5.565 14.587-5.565 20.152 0M12.53 18.22l-.53.53-.53-.53a.753.753 0 0 1 1.06 0Z" style="fill:none;fill-rule:nonzero;stroke:#000;stroke-width:1.5px" transform="matrix(0 3.68618 -3.68618 0 135.627 0)"/></svg>