<?xml version="1.0" encoding="UTF-8" standalone="no"?>
<!DOCTYPE svg PUBLIC "-//W3C//DTD SVG 1.1//EN" "http://www.w3.org/Graphics/SVG/1.1/DTD/svg11.dtd">
<svg width="100%" height="100%" viewBox="0 0 136 89" version="1.1" xmlns="http://www.w3.org/2000/svg" xmlns:xlink="http://www.w3.org/1999/xlink" xml:space="preserve" xmlns:serif="http://www.serif.com/" style="fill-rule:evenodd;clip-rule:evenodd;stroke-linecap:round;stroke-linejoin:round;">
    <g transform="matrix(0,-3.68618,3.68618,0,1,88.468)">
        <path d="M8.288,15.038C10.324,13.002 13.676,13.002 15.712,15.038M5.106,11.856C8.913,8.048 15.086,8.048 18.894,11.856M1.924,8.674C7.489,3.109 16.511,3.109 22.076,8.674M12.53,18.22L12,18.75L11.47,18.22C11.762,17.931 12.238,17.931 12.53,18.22Z" style="fill:none;fill-rule:nonzero;stroke:#e63739;stroke-width:1.5px;"/>
    </g>
    <g transform="matrix(0,3.68618,-3.68618,0,135.627,0)">
        <path d="M8.288,15.038C10.324,13.002 13.676,13.002 15.712,15.038M5.106,11.856C8.913,8.048 15.086,8.048 18.894,11.856M1.924,8.674C7.489,3.109 16.511,3.109 22.076,8.674M12.53,18.22L12,18.75L11.47,18.22C11.762,17.931 12.238,17.931 12.53,18.22Z" style="fill:none;fill-rule:nonzero;stroke:#e63739;stroke-width:1.5px;"/>
    </g>
</svg>
